<svg width="24" height="24" viewBox="0 0 24 24" fill="none" xmlns="http://www.w3.org/2000/svg">
<path d="M19.3066 5C19.7712 5 20.1756 5.17095 20.5053 5.51279C20.835 5.85463 21 6.25861 21 6.75583V17.2442C21 17.7259 20.835 18.1454 20.5053 18.4872C20.1756 18.8291 19.7862 19 19.3066 19H4.69345C4.22882 19 3.82445 18.8291 3.49471 18.4872C3.16498 18.1454 3 17.7414 3 17.2442V6.75583C3 6.27415 3.16498 5.85463 3.49471 5.51279C3.82445 5.17095 4.21384 5 4.69345 5H19.3066ZM19.3066 6.74028H4.69345V8.23199C5.51778 8.91567 7.09173 10.2053 9.42983 12.0854C9.42983 12.1165 9.59481 12.2564 9.92454 12.5361C10.2543 12.8158 10.4944 13.0023 10.6593 13.1266C10.8242 13.2354 11.0335 13.3597 11.3033 13.515C11.5731 13.6549 11.7978 13.7325 11.9927 13.7325C12.1875 13.7325 12.4123 13.6549 12.6821 13.515C12.9518 13.3752 13.1627 13.2354 13.3275 13.1266C13.4924 13.0178 13.7311 12.8158 14.0608 12.5361C14.3906 12.2564 14.5555 12.101 14.5555 12.0854C16.8936 10.1898 18.4826 8.90013 19.2919 8.23199L19.3066 6.74028ZM4.69345 17.2286H19.3066V10.4539C18.4822 11.1376 17.2533 12.1476 15.6196 13.4839C15.5747 13.515 15.41 13.6548 15.1103 13.919C14.8105 14.1831 14.5857 14.3851 14.4209 14.5094C14.256 14.6337 14.0166 14.7892 13.7169 14.9601C13.4171 15.1465 13.1176 15.2709 12.8328 15.3641C12.5481 15.4418 12.2625 15.4883 11.9927 15.4883C11.7229 15.4883 11.4227 15.4418 11.1379 15.3641C10.8382 15.2864 10.5536 15.1465 10.2539 14.9445C9.95411 14.7581 9.72935 14.5872 9.56448 14.4784C9.39962 14.3541 9.17486 14.1676 8.8751 13.919C8.57535 13.6703 8.41071 13.5306 8.36575 13.4995C6.73208 12.1632 5.50314 11.1532 4.67881 10.4695V17.2442L4.69345 17.2286Z" fill="white"/>
</svg>
