<svg width="117" height="100" viewBox="0 0 117 100" fill="none" xmlns="http://www.w3.org/2000/svg">
<path d="M55.7056 0V26.3158C55.7056 34.308 54.2396 42.8363 51.3078 51.9006C48.4736 60.8674 44.2713 69.5906 38.7007 78.0702C33.2279 86.4522 26.5823 93.7622 18.764 100L0 84.7953C6.15693 76.0234 11.4832 66.9103 15.9787 57.4561C20.572 47.9045 22.8686 37.7193 22.8686 26.9006V0H55.7056ZM117 0V26.3158C117 34.308 115.534 42.8363 112.602 51.9006C109.768 60.8674 105.566 69.5906 99.9951 78.0702C94.5223 86.4522 87.8767 93.7622 80.0584 100L61.2944 84.7953C67.4514 76.0234 72.7776 66.9103 77.2731 57.4561C81.8664 47.9045 84.163 37.7193 84.163 26.9006V0H117Z" fill="#9FB6DB"/>
</svg>
